<?xml version="1.0" encoding="UTF-8"?> <svg xmlns="http://www.w3.org/2000/svg" viewBox="0 0 1680 900"> <defs> <style>.cls-1{isolation:isolate;}.cls-2,.cls-4{fill:#fff;}.cls-3{mix-blend-mode:multiply;}.cls-4{opacity:0;}.cls-5{fill:#fefefe;opacity:0.01;}.cls-6{fill:#fdfdfd;opacity:0.01;}.cls-7{fill:#fcfcfc;opacity:0.02;}.cls-8{fill:#fbfbfb;opacity:0.02;}.cls-9{fill:#fafafa;opacity:0.03;}.cls-10{fill:#f9f9f9;opacity:0.03;}.cls-11{fill:#f8f8f8;opacity:0.04;}.cls-12{fill:#f7f7f7;opacity:0.05;}.cls-13{fill:#f6f6f6;opacity:0.05;}.cls-14{fill:#f5f5f5;opacity:0.06;}.cls-15{fill:#f4f4f4;opacity:0.06;}.cls-16{fill:#f3f3f3;opacity:0.07;}.cls-17{fill:#f2f2f2;opacity:0.07;}.cls-18{fill:#f1f1f1;opacity:0.08;}.cls-19{fill:#f0f0f0;opacity:0.09;}.cls-20{fill:#efefef;opacity:0.09;}.cls-21{fill:#eee;opacity:0.1;}.cls-22{fill:#ededed;opacity:0.1;}.cls-23{fill:#ececec;opacity:0.11;}.cls-24{fill:#ebebeb;opacity:0.11;}.cls-25{fill:#eaeaea;opacity:0.12;}.cls-26{fill:#e9e9e9;opacity:0.13;}.cls-27{fill:#e8e8e8;opacity:0.13;}.cls-28{fill:#e7e7e7;opacity:0.14;}.cls-29{fill:#e6e6e6;opacity:0.14;}.cls-30{fill:#e5e5e5;opacity:0.15;}.cls-31{fill:#e4e4e4;opacity:0.15;}.cls-32{fill:#e3e3e3;opacity:0.16;}.cls-33{fill:#e2e2e2;opacity:0.16;}.cls-34{fill:#e1e1e1;opacity:0.17;}.cls-35{fill:#e0e0e0;opacity:0.18;}.cls-36{fill:#dfdfdf;opacity:0.18;}.cls-37{fill:#dedede;opacity:0.19;}.cls-38{fill:#ddd;opacity:0.19;}.cls-39{fill:#dcdcdc;opacity:0.2;}.cls-40{fill:#dbdbdb;opacity:0.2;}.cls-41{fill:#dadada;opacity:0.21;}.cls-42{fill:#d9d9d9;opacity:0.22;}.cls-43{fill:#d8d8d8;opacity:0.22;}.cls-44{fill:#d7d7d7;opacity:0.23;}.cls-45{fill:#d6d6d6;opacity:0.23;}.cls-46{fill:#d5d5d5;opacity:0.24;}.cls-47{fill:#d4d4d4;opacity:0.24;}.cls-48{fill:#d3d3d3;opacity:0.25;}.cls-49{fill:#d2d2d2;opacity:0.26;}.cls-50{fill:#d1d1d1;opacity:0.26;}.cls-51{fill:#d0d0d0;opacity:0.27;}.cls-52{fill:#cfcfcf;opacity:0.27;}.cls-53{fill:#cecece;opacity:0.28;}.cls-54{fill:#cdcdcd;opacity:0.28;}.cls-55{fill:#ccc;opacity:0.29;}.cls-56{fill:#cbcbcb;opacity:0.3;}.cls-57{fill:#cacaca;opacity:0.3;}.cls-58{fill:#c9c9c9;opacity:0.31;}.cls-59{fill:#c8c8c8;opacity:0.31;}.cls-60{fill:#c7c7c7;opacity:0.32;}.cls-61{fill:#c6c6c6;opacity:0.32;}.cls-62{fill:#c5c5c5;opacity:0.33;}.cls-63{fill:#c4c4c4;opacity:0.34;}.cls-64{fill:#c3c3c3;opacity:0.34;}.cls-65{fill:#c2c2c2;opacity:0.35;}.cls-66{fill:#c1c1c1;opacity:0.35;}.cls-67{fill:silver;opacity:0.36;}.cls-68{fill:#bfbfbf;opacity:0.36;}.cls-69{fill:#bebebe;opacity:0.37;}.cls-70{fill:#bdbdbd;opacity:0.38;}.cls-71{fill:#bcbcbc;opacity:0.38;}.cls-72{fill:#bbb;opacity:0.39;}.cls-73{fill:#bababa;opacity:0.39;}.cls-74{fill:#b9b9b9;opacity:0.4;}.cls-75{fill:#b8b8b8;opacity:0.4;}.cls-76{fill:#b7b7b7;opacity:0.41;}.cls-77{fill:#b6b6b6;opacity:0.41;}.cls-78{fill:#b5b5b5;opacity:0.42;}.cls-79{fill:#b4b4b4;opacity:0.43;}.cls-80{fill:#b3b3b3;opacity:0.43;}.cls-81{fill:#b2b2b2;opacity:0.44;}.cls-82{fill:#b1b1b1;opacity:0.44;}.cls-83{fill:#b0b0b0;opacity:0.45;}.cls-84{fill:#afafaf;opacity:0.45;}.cls-85{fill:#aeaeae;opacity:0.46;}.cls-86{fill:#adadad;opacity:0.47;}.cls-87{fill:#acacac;opacity:0.47;}.cls-88{fill:#ababab;opacity:0.48;}.cls-89{fill:#aaa;opacity:0.48;}.cls-90{fill:#a9a9a9;opacity:0.49;}.cls-91{fill:#a8a8a8;opacity:0.49;}.cls-92{fill:#a7a7a7;opacity:0.5;}.cls-93{fill:#a6a6a6;opacity:0.51;}.cls-94{fill:#a5a5a5;opacity:0.51;}.cls-95{fill:#a4a4a4;opacity:0.52;}.cls-96{fill:#a3a3a3;opacity:0.52;}.cls-97{fill:#a2a2a2;opacity:0.53;}.cls-98{fill:#a1a1a1;opacity:0.53;}.cls-99{fill:#a0a0a0;opacity:0.54;}.cls-100{fill:#9f9f9f;opacity:0.55;}.cls-101{fill:#9e9e9e;opacity:0.55;}.cls-102{fill:#9d9d9d;opacity:0.56;}.cls-103{fill:#9c9c9c;opacity:0.56;}.cls-104{fill:#9b9b9b;opacity:0.57;}.cls-105{fill:#9a9a9a;opacity:0.57;}.cls-106{fill:#999;opacity:0.58;}.cls-107{fill:#989898;opacity:0.59;}.cls-108{fill:#979797;opacity:0.59;}.cls-109{fill:#969696;opacity:0.6;}.cls-110{fill:#959595;opacity:0.6;}.cls-111{fill:#949494;opacity:0.61;}.cls-112{fill:#939393;opacity:0.61;}.cls-113{fill:#929292;opacity:0.62;}.cls-114{fill:#919191;opacity:0.62;}.cls-115{fill:#909090;opacity:0.63;}.cls-116{fill:#8f8f8f;opacity:0.64;}.cls-117{fill:#8e8e8e;opacity:0.64;}.cls-118{fill:#8d8d8d;opacity:0.65;}.cls-119{fill:#8c8c8c;opacity:0.65;}.cls-120{fill:#8b8b8b;opacity:0.66;}.cls-121{fill:#8a8a8a;opacity:0.66;}.cls-122{fill:#898989;opacity:0.67;}.cls-123{fill:#888;opacity:0.68;}.cls-124{fill:#878787;opacity:0.68;}.cls-125{fill:#868686;opacity:0.69;}.cls-126{fill:#858585;opacity:0.69;}.cls-127{fill:#848484;opacity:0.7;}.cls-128{fill:#838383;opacity:0.7;}.cls-129{fill:#828282;opacity:0.71;}.cls-130{fill:#818181;opacity:0.72;}.cls-131{fill:gray;opacity:0.72;}.cls-132{fill:#7f7f7f;opacity:0.73;}.cls-133{fill:#7e7e7e;opacity:0.73;}.cls-134{fill:#7d7d7d;opacity:0.74;}.cls-135{fill:#7c7c7c;opacity:0.74;}.cls-136{fill:#7b7b7b;opacity:0.75;}.cls-137{fill:#7a7a7a;opacity:0.76;}.cls-138{fill:#797979;opacity:0.76;}.cls-139{fill:#787878;opacity:0.77;}.cls-140{fill:#777;opacity:0.77;}.cls-141{fill:#767676;opacity:0.78;}.cls-142{fill:#757575;opacity:0.78;}.cls-143{fill:#747474;opacity:0.79;}.cls-144{fill:#737373;opacity:0.8;}.cls-145{fill:#727272;opacity:0.8;}.cls-146{fill:#717171;opacity:0.81;}.cls-147{fill:#707070;opacity:0.81;}.cls-148{fill:#6f6f6f;opacity:0.82;}.cls-149{fill:#6e6e6e;opacity:0.82;}.cls-150{fill:#6d6d6d;opacity:0.83;}.cls-151{fill:#6c6c6c;opacity:0.84;}.cls-152{fill:#6b6b6b;opacity:0.84;}.cls-153{fill:#6a6a6a;opacity:0.85;}.cls-154{fill:#696969;opacity:0.85;}.cls-155{fill:#686868;opacity:0.86;}.cls-156{fill:#676767;opacity:0.86;}.cls-157{fill:#666;opacity:0.87;}.cls-158{fill:#656565;opacity:0.87;}.cls-159{fill:#646464;opacity:0.88;}.cls-160{fill:#636363;opacity:0.89;}.cls-161{fill:#626262;opacity:0.89;}.cls-162{fill:#616161;opacity:0.9;}.cls-163{fill:#606060;opacity:0.9;}.cls-164{fill:#5f5f5f;opacity:0.91;}.cls-165{fill:#5e5e5e;opacity:0.91;}.cls-166{fill:#5d5d5d;opacity:0.92;}.cls-167{fill:#5c5c5c;opacity:0.93;}.cls-168{fill:#5b5b5b;opacity:0.93;}.cls-169{fill:#5a5a5a;opacity:0.94;}.cls-170{fill:#595959;opacity:0.94;}.cls-171{fill:#585858;opacity:0.95;}.cls-172{fill:#575757;opacity:0.95;}.cls-173{fill:#565656;opacity:0.96;}.cls-174{fill:#555;opacity:0.97;}.cls-175{fill:#545454;opacity:0.97;}.cls-176{fill:#535353;opacity:0.98;}.cls-177{fill:#525252;opacity:0.98;}.cls-178{fill:#515151;opacity:0.99;}.cls-179{fill:#505050;opacity:0.99;}.cls-180{fill:#4f4f4f;}.cls-181{fill:#579ae1;}.cls-182{opacity:0.1;}</style> </defs> <title>sanofi_SHG</title> <g class="cls-1"> <g id="Слой_1" data-name="Слой 1"> <rect class="cls-2" y="449" width="1702" height="518"></rect> <g class="cls-3"> <path class="cls-4" d="M1696,430.85V469S887.79,805.42,415.48,778.68C102.06,760.93-10,622.29-10,622.29v-38.1S102.06,722.83,415.48,740.57C887.79,767.31,1696,430.85,1696,430.85Z"></path> <path class="cls-5" d="M1696,430.63v38.11S887.79,805.2,415.48,778.46C102.06,760.71-10,622.07-10,622.07V584S102.06,722.61,415.48,740.35C887.79,767.09,1696,430.63,1696,430.63Z"></path> <path class="cls-6" d="M1696,430.42v38.11S887.79,805,415.48,778.25C102.06,760.5-10,621.86-10,621.86v-38.1S102.06,722.4,415.48,740.14C887.79,766.88,1696,430.42,1696,430.42Z"></path> <path class="cls-7" d="M1696,430.2v38.11S887.79,804.77,415.48,778C102.06,760.28-10,621.64-10,621.64v-38.1S102.06,722.18,415.48,739.92C887.79,766.66,1696,430.2,1696,430.2Z"></path> <path class="cls-8" d="M1696,430V468.1S887.79,804.56,415.48,777.82C102.06,760.07-10,621.43-10,621.43v-38.1S102.06,722,415.48,739.71C887.79,766.45,1696,430,1696,430Z"></path> <path class="cls-9" d="M1696,429.77v38.11S887.79,804.34,415.48,777.6C102.06,759.85-10,621.21-10,621.21v-38.1S102.06,721.75,415.48,739.49C887.79,766.23,1696,429.77,1696,429.77Z"></path> <path class="cls-10" d="M1696,429.55v38.11S887.79,804.12,415.48,777.38C102.06,759.63-10,621-10,621v-38.1S102.06,721.53,415.48,739.27C887.79,766,1696,429.55,1696,429.55Z"></path> <path class="cls-11" d="M1696,429.34v38.11S887.79,803.91,415.48,777.17C102.06,759.42-10,620.78-10,620.78v-38.1S102.06,721.32,415.48,739.06C887.79,765.8,1696,429.34,1696,429.34Z"></path> <path class="cls-12" d="M1696,429.12v38.11S887.79,803.69,415.48,777C102.06,759.2-10,620.56-10,620.56v-38.1S102.06,721.1,415.48,738.84C887.79,765.58,1696,429.12,1696,429.12Z"></path> <path class="cls-13" d="M1696,428.91V467S887.79,803.48,415.48,776.74C102.06,759-10,620.35-10,620.35v-38.1S102.06,720.89,415.48,738.63C887.79,765.37,1696,428.91,1696,428.91Z"></path> <path class="cls-14" d="M1696,428.69V466.8S887.79,803.26,415.48,776.52C102.06,758.77-10,620.13-10,620.13V582S102.06,720.67,415.48,738.41C887.79,765.15,1696,428.69,1696,428.69Z"></path> <path class="cls-15" d="M1696,428.47v38.11S887.79,803,415.48,776.3C102.06,758.55-10,619.91-10,619.91V581.82S102.06,720.45,415.48,738.2C887.79,764.93,1696,428.47,1696,428.47Z"></path> <path class="cls-16" d="M1696,428.26v38.11S887.79,802.83,415.48,776.09C102.06,758.34-10,619.7-10,619.7V581.6S102.06,720.24,415.48,738C887.79,764.72,1696,428.26,1696,428.26Z"></path> <path class="cls-17" d="M1696,428v38.11S887.79,802.61,415.48,775.87C102.06,758.12-10,619.48-10,619.48v-38.1S102.06,720,415.48,737.76C887.79,764.5,1696,428,1696,428Z"></path> <path class="cls-18" d="M1696,427.83v38.11S887.79,802.4,415.48,775.66C102.06,757.91-10,619.27-10,619.27v-38.1S102.06,719.81,415.48,737.55C887.79,764.29,1696,427.83,1696,427.83Z"></path> <path class="cls-19" d="M1696,427.61v38.11S887.79,802.18,415.48,775.44C102.06,757.69-10,619.05-10,619.05V581S102.06,719.59,415.48,737.33C887.79,764.07,1696,427.61,1696,427.61Z"></path> <path class="cls-20" d="M1696,427.4v38.11S887.79,802,415.48,775.23C102.06,757.48-10,618.84-10,618.84v-38.1S102.06,719.38,415.48,737.12C887.79,763.86,1696,427.4,1696,427.4Z"></path> <path class="cls-21" d="M1696,427.18v38.11S887.79,801.75,415.48,775C102.06,757.26-10,618.62-10,618.62v-38.1S102.06,719.16,415.48,736.9C887.79,763.64,1696,427.18,1696,427.18Z"></path> <path class="cls-22" d="M1696,427v38.11S887.79,801.53,415.48,774.79C102.06,757-10,618.4-10,618.4V580.3S102.06,718.94,415.48,736.68C887.79,763.42,1696,427,1696,427Z"></path> <path class="cls-23" d="M1696,426.75v38.11S887.79,801.32,415.48,774.58C102.06,756.83-10,618.19-10,618.19v-38.1S102.06,718.73,415.48,736.47C887.79,763.21,1696,426.75,1696,426.75Z"></path> <path class="cls-24" d="M1696,426.53v38.11S887.79,801.1,415.48,774.36C102.06,756.61-10,618-10,618v-38.1S102.06,718.51,415.48,736.25C887.79,763,1696,426.53,1696,426.53Z"></path> <path class="cls-25" d="M1696,426.32v38.11S887.79,800.89,415.48,774.15C102.06,756.4-10,617.76-10,617.76v-38.1S102.06,718.3,415.48,736C887.79,762.78,1696,426.32,1696,426.32Z"></path> <path class="cls-26" d="M1696,426.1v38.11S887.79,800.67,415.48,773.93C102.06,756.18-10,617.54-10,617.54v-38.1S102.06,718.08,415.48,735.82C887.79,762.56,1696,426.1,1696,426.1Z"></path> <path class="cls-27" d="M1696,425.88V464S887.79,800.45,415.48,773.71C102.06,756-10,617.32-10,617.32v-38.1S102.06,717.86,415.48,735.6C887.79,762.34,1696,425.88,1696,425.88Z"></path> <path class="cls-28" d="M1696,425.67v38.11S887.79,800.24,415.48,773.5C102.06,755.75-10,617.11-10,617.11V579S102.06,717.65,415.48,735.39C887.79,762.13,1696,425.67,1696,425.67Z"></path> <path class="cls-29" d="M1696,425.45v38.11S887.79,800,415.48,773.28C102.06,755.53-10,616.89-10,616.89v-38.1S102.06,717.43,415.48,735.17C887.79,761.91,1696,425.45,1696,425.45Z"></path> <path class="cls-30" d="M1696,425.24v38.11S887.79,799.81,415.48,773.07C102.06,755.32-10,616.68-10,616.68v-38.1S102.06,717.22,415.48,735C887.79,761.7,1696,425.24,1696,425.24Z"></path> <path class="cls-31" d="M1696,425v38.11S887.79,799.59,415.48,772.85C102.06,755.1-10,616.46-10,616.46v-38.1S102.06,717,415.48,734.74C887.79,761.48,1696,425,1696,425Z"></path> <path class="cls-32" d="M1696,424.8v38.11S887.79,799.37,415.48,772.63C102.06,754.88-10,616.24-10,616.24v-38.1S102.06,716.78,415.48,734.52C887.79,761.26,1696,424.8,1696,424.8Z"></path> <path class="cls-33" d="M1696,424.59V462.7S887.79,799.16,415.48,772.42C102.06,754.67-10,616-10,616v-38.1S102.06,716.57,415.48,734.31C887.79,761.05,1696,424.59,1696,424.59Z"></path> <path class="cls-34" d="M1696,424.37v38.11S887.79,798.94,415.48,772.2C102.06,754.45-10,615.81-10,615.81v-38.1S102.06,716.35,415.48,734.09C887.79,760.83,1696,424.37,1696,424.37Z"></path> <path class="cls-35" d="M1696,424.16v38.11S887.79,798.73,415.48,772C102.06,754.24-10,615.6-10,615.6V577.5S102.06,716.14,415.48,733.88C887.79,760.62,1696,424.16,1696,424.16Z"></path> <path class="cls-36" d="M1696,423.94v38.11S887.79,798.51,415.48,771.77C102.06,754-10,615.38-10,615.38v-38.1S102.06,715.92,415.48,733.66C887.79,760.4,1696,423.94,1696,423.94Z"></path> <path class="cls-37" d="M1696,423.72v38.11S887.79,798.29,415.48,771.55C102.06,753.8-10,615.16-10,615.16V577.07S102.06,715.7,415.48,733.45C887.79,760.18,1696,423.72,1696,423.72Z"></path> <path class="cls-38" d="M1696,423.51v38.11S887.79,798.08,415.48,771.34C102.06,753.59-10,615-10,615v-38.1S102.06,715.49,415.48,733.23C887.79,760,1696,423.51,1696,423.51Z"></path> <path class="cls-39" d="M1696,423.29V461.4S887.79,797.86,415.48,771.12C102.06,753.37-10,614.73-10,614.73v-38.1S102.06,715.27,415.48,733C887.79,759.75,1696,423.29,1696,423.29Z"></path> <path class="cls-40" d="M1696,423.08v38.11S887.79,797.65,415.48,770.91C102.06,753.16-10,614.52-10,614.52v-38.1S102.06,715.06,415.48,732.8C887.79,759.54,1696,423.08,1696,423.08Z"></path> <path class="cls-41" d="M1696,422.86V461S887.79,797.43,415.48,770.69C102.06,752.94-10,614.3-10,614.3V576.2S102.06,714.84,415.48,732.58C887.79,759.32,1696,422.86,1696,422.86Z"></path> <path class="cls-42" d="M1696,422.65v38.11S887.79,797.22,415.48,770.48C102.06,752.73-10,614.09-10,614.09V576S102.06,714.63,415.48,732.37C887.79,759.11,1696,422.65,1696,422.65Z"></path> <path class="cls-43" d="M1696,422.43v38.11S887.79,797,415.48,770.26C102.06,752.51-10,613.87-10,613.87v-38.1S102.06,714.41,415.48,732.15C887.79,758.89,1696,422.43,1696,422.43Z"></path> <path class="cls-44" d="M1696,422.21v38.11S887.79,796.78,415.48,770C102.06,752.29-10,613.65-10,613.65v-38.1S102.06,714.19,415.48,731.93C887.79,758.67,1696,422.21,1696,422.21Z"></path> <path class="cls-45" d="M1696,422v38.11S887.79,796.57,415.48,769.83C102.06,752.08-10,613.44-10,613.44v-38.1S102.06,714,415.48,731.72C887.79,758.46,1696,422,1696,422Z"></path> <path class="cls-46" d="M1696,421.78v38.11S887.79,796.35,415.48,769.61C102.06,751.86-10,613.22-10,613.22v-38.1S102.06,713.76,415.48,731.5C887.79,758.24,1696,421.78,1696,421.78Z"></path> <path class="cls-47" d="M1696,421.57v38.11S887.79,796.14,415.48,769.4C102.06,751.65-10,613-10,613v-38.1S102.06,713.55,415.48,731.29C887.79,758,1696,421.57,1696,421.57Z"></path> <path class="cls-48" d="M1696,421.35v38.11S887.79,795.92,415.48,769.18C102.06,751.43-10,612.79-10,612.79v-38.1S102.06,713.33,415.48,731.07C887.79,757.81,1696,421.35,1696,421.35Z"></path> <path class="cls-49" d="M1696,421.13v38.11S887.79,795.7,415.48,769C102.06,751.21-10,612.57-10,612.57v-38.1S102.06,713.11,415.48,730.85C887.79,757.59,1696,421.13,1696,421.13Z"></path> <path class="cls-50" d="M1696,420.92V459S887.79,795.49,415.48,768.75C102.06,751-10,612.36-10,612.36v-38.1S102.06,712.9,415.48,730.64C887.79,757.38,1696,420.92,1696,420.92Z"></path> <path class="cls-51" d="M1696,420.7v38.11S887.79,795.27,415.48,768.53C102.06,750.78-10,612.14-10,612.14V574S102.06,712.68,415.48,730.42C887.79,757.16,1696,420.7,1696,420.7Z"></path> <path class="cls-52" d="M1696,420.49V458.6S887.79,795.06,415.48,768.32C102.06,750.57-10,611.93-10,611.93v-38.1S102.06,712.47,415.48,730.21C887.79,757,1696,420.49,1696,420.49Z"></path> <path class="cls-53" d="M1696,420.27v38.11S887.79,794.84,415.48,768.1C102.06,750.35-10,611.71-10,611.71v-38.1S102.06,712.25,415.48,730C887.79,756.73,1696,420.27,1696,420.27Z"></path> <path class="cls-54" d="M1696,420.05v38.11S887.79,794.62,415.48,767.88C102.06,750.13-10,611.49-10,611.49v-38.1S102.06,712,415.48,729.77C887.79,756.51,1696,420.05,1696,420.05Z"></path> <path class="cls-55" d="M1696,419.84V458S887.79,794.41,415.48,767.67C102.06,749.92-10,611.28-10,611.28v-38.1S102.06,711.82,415.48,729.56C887.79,756.3,1696,419.84,1696,419.84Z"></path> <path class="cls-56" d="M1696,419.62v38.11S887.79,794.19,415.48,767.45C102.06,749.7-10,611.06-10,611.06V573S102.06,711.6,415.48,729.34C887.79,756.08,1696,419.62,1696,419.62Z"></path> <path class="cls-57" d="M1696,419.41v38.11S887.79,794,415.48,767.24C102.06,749.49-10,610.85-10,610.85v-38.1S102.06,711.39,415.48,729.13C887.79,755.87,1696,419.41,1696,419.41Z"></path> <path class="cls-58" d="M1696,419.19V457.3S887.79,793.76,415.48,767C102.06,749.27-10,610.63-10,610.63v-38.1S102.06,711.17,415.48,728.91C887.79,755.65,1696,419.19,1696,419.19Z"></path> <path class="cls-59" d="M1696,419v38.11S887.79,793.54,415.48,766.8C102.06,749.05-10,610.41-10,610.41V572.32S102.06,711,415.48,728.7C887.79,755.43,1696,419,1696,419Z"></path> <path class="cls-60" d="M1696,418.76v38.11S887.79,793.33,415.48,766.59C102.06,748.84-10,610.2-10,610.2V572.1S102.06,710.74,415.48,728.48C887.79,755.22,1696,418.76,1696,418.76Z"></path> <path class="cls-61" d="M1696,418.54v38.11S887.79,793.11,415.48,766.37C102.06,748.62-10,610-10,610v-38.1S102.06,710.52,415.48,728.26C887.79,755,1696,418.54,1696,418.54Z"></path> <path class="cls-62" d="M1696,418.33v38.11S887.79,792.9,415.48,766.16C102.06,748.41-10,609.77-10,609.77v-38.1S102.06,710.31,415.48,728.05C887.79,754.79,1696,418.33,1696,418.33Z"></path> <path class="cls-63" d="M1696,418.11v38.11S887.79,792.68,415.48,765.94C102.06,748.19-10,609.55-10,609.55v-38.1S102.06,710.09,415.48,727.83C887.79,754.57,1696,418.11,1696,418.11Z"></path> <path class="cls-64" d="M1696,417.9V456S887.79,792.47,415.48,765.73C102.06,748-10,609.34-10,609.34v-38.1S102.06,709.88,415.48,727.62C887.79,754.36,1696,417.9,1696,417.9Z"></path> <path class="cls-65" d="M1696,417.68v38.11S887.79,792.25,415.48,765.51C102.06,747.76-10,609.12-10,609.12V571S102.06,709.66,415.48,727.4C887.79,754.14,1696,417.68,1696,417.68Z"></path> <path class="cls-66" d="M1696,417.46v38.11S887.79,792,415.48,765.29C102.06,747.54-10,608.9-10,608.9V570.8S102.06,709.44,415.48,727.18C887.79,753.92,1696,417.46,1696,417.46Z"></path> <path class="cls-67" d="M1696,417.25v38.11S887.79,791.82,415.48,765.08C102.06,747.33-10,608.69-10,608.69v-38.1S102.06,709.23,415.48,727C887.79,753.71,1696,417.25,1696,417.25Z"></path> <path class="cls-68" d="M1696,417v38.11S887.79,791.6,415.48,764.86C102.06,747.11-10,608.47-10,608.47v-38.1S102.06,709,415.48,726.75C887.79,753.49,1696,417,1696,417Z"></path> <path class="cls-69" d="M1696,416.82v38.11S887.79,791.39,415.48,764.65C102.06,746.9-10,608.26-10,608.26v-38.1S102.06,708.8,415.48,726.54C887.79,753.28,1696,416.82,1696,416.82Z"></path> <path class="cls-70" d="M1696,416.6v38.11S887.79,791.17,415.48,764.43C102.06,746.68-10,608-10,608v-38.1S102.06,708.58,415.48,726.32C887.79,753.06,1696,416.6,1696,416.6Z"></path> <path class="cls-71" d="M1696,416.38v38.11S887.79,791,415.48,764.21C102.06,746.46-10,607.82-10,607.82v-38.1S102.06,708.36,415.48,726.1C887.79,752.84,1696,416.38,1696,416.38Z"></path> <path class="cls-72" d="M1696,416.17v38.11S887.79,790.74,415.48,764C102.06,746.25-10,607.61-10,607.61v-38.1S102.06,708.15,415.48,725.89C887.79,752.63,1696,416.17,1696,416.17Z"></path> <path class="cls-73" d="M1696,416v38.11S887.79,790.52,415.48,763.78C102.06,746-10,607.39-10,607.39v-38.1S102.06,707.93,415.48,725.67C887.79,752.41,1696,416,1696,416Z"></path> <path class="cls-74" d="M1696,415.74v38.11S887.79,790.31,415.48,763.57C102.06,745.82-10,607.18-10,607.18v-38.1S102.06,707.72,415.48,725.46C887.79,752.2,1696,415.74,1696,415.74Z"></path> <path class="cls-75" d="M1696,415.52v38.11S887.79,790.09,415.48,763.35C102.06,745.6-10,607-10,607v-38.1S102.06,707.5,415.48,725.24C887.79,752,1696,415.52,1696,415.52Z"></path> <path class="cls-76" d="M1696,415.3v38.11S887.79,789.87,415.48,763.13C102.06,745.38-10,606.74-10,606.74v-38.1S102.06,707.28,415.48,725C887.79,751.76,1696,415.3,1696,415.3Z"></path> <path class="cls-77" d="M1696,415.09V453.2S887.79,789.66,415.48,762.92C102.06,745.17-10,606.53-10,606.53v-38.1S102.06,707.07,415.48,724.81C887.79,751.55,1696,415.09,1696,415.09Z"></path> <path class="cls-78" d="M1696,414.87V453S887.79,789.44,415.48,762.7C102.06,745-10,606.31-10,606.31v-38.1S102.06,706.85,415.48,724.59C887.79,751.33,1696,414.87,1696,414.87Z"></path> <path class="cls-79" d="M1696,414.66v38.11S887.79,789.23,415.48,762.49C102.06,744.74-10,606.1-10,606.1V568S102.06,706.64,415.48,724.38C887.79,751.12,1696,414.66,1696,414.66Z"></path> <path class="cls-80" d="M1696,414.44v38.11S887.79,789,415.48,762.27C102.06,744.52-10,605.88-10,605.88v-38.1S102.06,706.42,415.48,724.16C887.79,750.9,1696,414.44,1696,414.44Z"></path> <path class="cls-81" d="M1696,414.22v38.11S887.79,788.79,415.48,762.05C102.06,744.3-10,605.66-10,605.66V567.57S102.06,706.2,415.48,724C887.79,750.68,1696,414.22,1696,414.22Z"></path> <path class="cls-82" d="M1696,414v38.11S887.79,788.58,415.48,761.84C102.06,744.09-10,605.45-10,605.45v-38.1S102.06,706,415.48,723.73C887.79,750.47,1696,414,1696,414Z"></path> <path class="cls-83" d="M1696,413.79V451.9S887.79,788.36,415.48,761.62C102.06,743.87-10,605.23-10,605.23v-38.1S102.06,705.77,415.48,723.51C887.79,750.25,1696,413.79,1696,413.79Z"></path> <path class="cls-84" d="M1696,413.58v38.11S887.79,788.15,415.48,761.41C102.06,743.66-10,605-10,605v-38.1S102.06,705.56,415.48,723.3C887.79,750,1696,413.58,1696,413.58Z"></path> <path class="cls-85" d="M1696,413.36v38.11S887.79,787.93,415.48,761.19C102.06,743.44-10,604.8-10,604.8V566.7S102.06,705.34,415.48,723.08C887.79,749.82,1696,413.36,1696,413.36Z"></path> <path class="cls-86" d="M1696,413.15v38.11S887.79,787.72,415.48,761C102.06,743.23-10,604.59-10,604.59v-38.1S102.06,705.13,415.48,722.87C887.79,749.61,1696,413.15,1696,413.15Z"></path> <path class="cls-87" d="M1696,412.93V451S887.79,787.5,415.48,760.76C102.06,743-10,604.37-10,604.37v-38.1S102.06,704.91,415.48,722.65C887.79,749.39,1696,412.93,1696,412.93Z"></path> <path class="cls-88" d="M1696,412.71v38.11S887.79,787.28,415.48,760.54C102.06,742.79-10,604.15-10,604.15v-38.1S102.06,704.69,415.48,722.43C887.79,749.17,1696,412.71,1696,412.71Z"></path> <path class="cls-89" d="M1696,412.5v38.11S887.79,787.07,415.48,760.33C102.06,742.58-10,603.94-10,603.94v-38.1S102.06,704.48,415.48,722.22C887.79,749,1696,412.5,1696,412.5Z"></path> <path class="cls-90" d="M1696,412.28v38.11S887.79,786.85,415.48,760.11C102.06,742.36-10,603.72-10,603.72v-38.1S102.06,704.26,415.48,722C887.79,748.74,1696,412.28,1696,412.28Z"></path> <path class="cls-91" d="M1696,412.07v38.11S887.79,786.64,415.48,759.9C102.06,742.15-10,603.51-10,603.51v-38.1S102.06,704.05,415.48,721.79C887.79,748.53,1696,412.07,1696,412.07Z"></path> <path class="cls-92" d="M1696,411.85V450S887.79,786.42,415.48,759.68C102.06,741.93-10,603.29-10,603.29v-38.1S102.06,703.83,415.48,721.57C887.79,748.31,1696,411.85,1696,411.85Z"></path> <path class="cls-93" d="M1696,411.63v38.11S887.79,786.2,415.48,759.46C102.06,741.71-10,603.07-10,603.07V565S102.06,703.61,415.48,721.35C887.79,748.09,1696,411.63,1696,411.63Z"></path> <path class="cls-94" d="M1696,411.42v38.11S887.79,786,415.48,759.25C102.06,741.5-10,602.86-10,602.86v-38.1S102.06,703.4,415.48,721.14C887.79,747.88,1696,411.42,1696,411.42Z"></path> <path class="cls-95" d="M1696,411.2v38.11S887.79,785.77,415.48,759C102.06,741.28-10,602.64-10,602.64v-38.1S102.06,703.18,415.48,720.92C887.79,747.66,1696,411.2,1696,411.2Z"></path> <path class="cls-96" d="M1696,411V449.1S887.79,785.56,415.48,758.82C102.06,741.07-10,602.43-10,602.43v-38.1S102.06,703,415.48,720.71C887.79,747.45,1696,411,1696,411Z"></path> <path class="cls-97" d="M1696,410.77v38.11S887.79,785.34,415.48,758.6C102.06,740.85-10,602.21-10,602.21v-38.1S102.06,702.75,415.48,720.49C887.79,747.23,1696,410.77,1696,410.77Z"></path> <path class="cls-98" d="M1696,410.55v38.11S887.79,785.12,415.48,758.38C102.06,740.63-10,602-10,602v-38.1S102.06,702.53,415.48,720.27C887.79,747,1696,410.55,1696,410.55Z"></path> <path class="cls-99" d="M1696,410.34v38.11S887.79,784.91,415.48,758.17C102.06,740.42-10,601.78-10,601.78v-38.1S102.06,702.32,415.48,720.06C887.79,746.8,1696,410.34,1696,410.34Z"></path> <path class="cls-100" d="M1696,410.12v38.11S887.79,784.69,415.48,758C102.06,740.2-10,601.56-10,601.56v-38.1S102.06,702.1,415.48,719.84C887.79,746.58,1696,410.12,1696,410.12Z"></path> <path class="cls-101" d="M1696,409.91V448S887.79,784.48,415.48,757.74C102.06,740-10,601.35-10,601.35v-38.1S102.06,701.89,415.48,719.63C887.79,746.37,1696,409.91,1696,409.91Z"></path> <path class="cls-102" d="M1696,409.69V447.8S887.79,784.26,415.48,757.52C102.06,739.77-10,601.13-10,601.13V563S102.06,701.67,415.48,719.41C887.79,746.15,1696,409.69,1696,409.69Z"></path> <path class="cls-103" d="M1696,409.47v38.11S887.79,784,415.48,757.3C102.06,739.55-10,600.91-10,600.91V562.82S102.06,701.45,415.48,719.2C887.79,745.93,1696,409.47,1696,409.47Z"></path> <path class="cls-104" d="M1696,409.26v38.11S887.79,783.83,415.48,757.09C102.06,739.34-10,600.7-10,600.7V562.6S102.06,701.24,415.48,719C887.79,745.72,1696,409.26,1696,409.26Z"></path> <path class="cls-105" d="M1696,409v38.11S887.79,783.61,415.48,756.87C102.06,739.12-10,600.48-10,600.48v-38.1S102.06,701,415.48,718.76C887.79,745.5,1696,409,1696,409Z"></path> <path class="cls-106" d="M1696,408.83v38.11S887.79,783.4,415.48,756.66C102.06,738.91-10,600.27-10,600.27v-38.1S102.06,700.81,415.48,718.55C887.79,745.29,1696,408.83,1696,408.83Z"></path> <path class="cls-107" d="M1696,408.61v38.11S887.79,783.18,415.48,756.44C102.06,738.69-10,600.05-10,600.05V562S102.06,700.59,415.48,718.33C887.79,745.07,1696,408.61,1696,408.61Z"></path> <path class="cls-108" d="M1696,408.4v38.11S887.79,783,415.48,756.23C102.06,738.48-10,599.84-10,599.84v-38.1S102.06,700.38,415.48,718.12C887.79,744.86,1696,408.4,1696,408.4Z"></path> <path class="cls-109" d="M1696,408.18v38.11S887.79,782.75,415.48,756C102.06,738.26-10,599.62-10,599.62v-38.1S102.06,700.16,415.48,717.9C887.79,744.64,1696,408.18,1696,408.18Z"></path> <path class="cls-110" d="M1696,408v38.11S887.79,782.53,415.48,755.79C102.06,738-10,599.4-10,599.4V561.3S102.06,699.94,415.48,717.68C887.79,744.42,1696,408,1696,408Z"></path> <path class="cls-111" d="M1696,407.75v38.11S887.79,782.32,415.48,755.58C102.06,737.83-10,599.19-10,599.19v-38.1S102.06,699.73,415.48,717.47C887.79,744.21,1696,407.75,1696,407.75Z"></path> <path class="cls-112" d="M1696,407.53v38.11S887.79,782.1,415.48,755.36C102.06,737.61-10,599-10,599v-38.1S102.06,699.51,415.48,717.25C887.79,744,1696,407.53,1696,407.53Z"></path> <path class="cls-113" d="M1696,407.32v38.11S887.79,781.89,415.48,755.15C102.06,737.4-10,598.76-10,598.76v-38.1S102.06,699.3,415.48,717C887.79,743.78,1696,407.32,1696,407.32Z"></path> <path class="cls-114" d="M1696,407.1v38.11S887.79,781.67,415.48,754.93C102.06,737.18-10,598.54-10,598.54v-38.1S102.06,699.08,415.48,716.82C887.79,743.56,1696,407.1,1696,407.1Z"></path> <path class="cls-115" d="M1696,406.88V445S887.79,781.45,415.48,754.71C102.06,737-10,598.32-10,598.32v-38.1S102.06,698.86,415.48,716.6C887.79,743.34,1696,406.88,1696,406.88Z"></path> <path class="cls-116" d="M1696,406.67v38.11S887.79,781.24,415.48,754.5C102.06,736.75-10,598.11-10,598.11V560S102.06,698.65,415.48,716.39C887.79,743.13,1696,406.67,1696,406.67Z"></path> <path class="cls-117" d="M1696,406.45v38.11S887.79,781,415.48,754.28C102.06,736.53-10,597.89-10,597.89v-38.1S102.06,698.43,415.48,716.17C887.79,742.91,1696,406.45,1696,406.45Z"></path> <path class="cls-118" d="M1696,406.24v38.11S887.79,780.81,415.48,754.07C102.06,736.32-10,597.68-10,597.68v-38.1S102.06,698.22,415.48,716C887.79,742.7,1696,406.24,1696,406.24Z"></path> <path class="cls-119" d="M1696,406v38.11S887.79,780.59,415.48,753.85C102.06,736.1-10,597.46-10,597.46v-38.1S102.06,698,415.48,715.74C887.79,742.48,1696,406,1696,406Z"></path> <path class="cls-120" d="M1696,405.8v38.11S887.79,780.37,415.48,753.63C102.06,735.88-10,597.24-10,597.24v-38.1S102.06,697.78,415.48,715.52C887.79,742.26,1696,405.8,1696,405.8Z"></path> <path class="cls-121" d="M1696,405.59V443.7S887.79,780.16,415.48,753.42C102.06,735.67-10,597-10,597v-38.1S102.06,697.57,415.48,715.31C887.79,742.05,1696,405.59,1696,405.59Z"></path> <path class="cls-122" d="M1696,405.37v38.11S887.79,779.94,415.48,753.2C102.06,735.45-10,596.81-10,596.81v-38.1S102.06,697.35,415.48,715.09C887.79,741.83,1696,405.37,1696,405.37Z"></path> <path class="cls-123" d="M1696,405.16v38.11S887.79,779.73,415.48,753C102.06,735.24-10,596.6-10,596.6V558.5S102.06,697.14,415.48,714.88C887.79,741.62,1696,405.16,1696,405.16Z"></path> <path class="cls-124" d="M1696,404.94v38.11S887.79,779.51,415.48,752.77C102.06,735-10,596.38-10,596.38v-38.1S102.06,696.92,415.48,714.66C887.79,741.4,1696,404.94,1696,404.94Z"></path> <path class="cls-125" d="M1696,404.72v38.11S887.79,779.29,415.48,752.55C102.06,734.8-10,596.16-10,596.16V558.07S102.06,696.7,415.48,714.45C887.79,741.18,1696,404.72,1696,404.72Z"></path> <path class="cls-126" d="M1696,404.51v38.11S887.79,779.08,415.48,752.34C102.06,734.59-10,596-10,596v-38.1S102.06,696.49,415.48,714.23C887.79,741,1696,404.51,1696,404.51Z"></path> <path class="cls-127" d="M1696,404.29V442.4S887.79,778.86,415.48,752.12C102.06,734.37-10,595.73-10,595.73v-38.1S102.06,696.27,415.48,714C887.79,740.75,1696,404.29,1696,404.29Z"></path> <path class="cls-128" d="M1696,404.08v38.11S887.79,778.65,415.48,751.91C102.06,734.16-10,595.52-10,595.52v-38.1S102.06,696.06,415.48,713.8C887.79,740.54,1696,404.08,1696,404.08Z"></path> <path class="cls-129" d="M1696,403.86V442S887.79,778.43,415.48,751.69C102.06,733.94-10,595.3-10,595.3V557.2S102.06,695.84,415.48,713.58C887.79,740.32,1696,403.86,1696,403.86Z"></path> <path class="cls-130" d="M1696,403.65v38.11S887.79,778.22,415.48,751.48C102.06,733.73-10,595.09-10,595.09V557S102.06,695.63,415.48,713.37C887.79,740.11,1696,403.65,1696,403.65Z"></path> <path class="cls-131" d="M1696,403.43v38.11S887.79,778,415.48,751.26C102.06,733.51-10,594.87-10,594.87v-38.1S102.06,695.41,415.48,713.15C887.79,739.89,1696,403.43,1696,403.43Z"></path> <path class="cls-132" d="M1696,403.21v38.11S887.79,777.78,415.48,751C102.06,733.29-10,594.65-10,594.65v-38.1S102.06,695.19,415.48,712.93C887.79,739.67,1696,403.21,1696,403.21Z"></path> <path class="cls-133" d="M1696,403v38.11S887.79,777.57,415.48,750.83C102.06,733.08-10,594.44-10,594.44v-38.1S102.06,695,415.48,712.72C887.79,739.46,1696,403,1696,403Z"></path> <path class="cls-134" d="M1696,402.78v38.11S887.79,777.35,415.48,750.61C102.06,732.86-10,594.22-10,594.22v-38.1S102.06,694.76,415.48,712.5C887.79,739.24,1696,402.78,1696,402.78Z"></path> <path class="cls-135" d="M1696,402.57v38.11S887.79,777.14,415.48,750.4C102.06,732.65-10,594-10,594v-38.1S102.06,694.55,415.48,712.29C887.79,739,1696,402.57,1696,402.57Z"></path> <path class="cls-136" d="M1696,402.35v38.11S887.79,776.92,415.48,750.18C102.06,732.43-10,593.79-10,593.79v-38.1S102.06,694.33,415.48,712.07C887.79,738.81,1696,402.35,1696,402.35Z"></path> <path class="cls-137" d="M1696,402.13v38.11S887.79,776.7,415.48,750C102.06,732.21-10,593.57-10,593.57v-38.1S102.06,694.11,415.48,711.85C887.79,738.59,1696,402.13,1696,402.13Z"></path> <path class="cls-138" d="M1696,401.92V440S887.79,776.49,415.48,749.75C102.06,732-10,593.36-10,593.36v-38.1S102.06,693.9,415.48,711.64C887.79,738.38,1696,401.92,1696,401.92Z"></path> <path class="cls-139" d="M1696,401.7v38.11S887.79,776.27,415.48,749.53C102.06,731.78-10,593.14-10,593.14V555S102.06,693.68,415.48,711.42C887.79,738.16,1696,401.7,1696,401.7Z"></path> <path class="cls-140" d="M1696,401.49V439.6S887.79,776.06,415.48,749.32C102.06,731.57-10,592.93-10,592.93v-38.1S102.06,693.47,415.48,711.21C887.79,738,1696,401.49,1696,401.49Z"></path> <path class="cls-141" d="M1696,401.27v38.11S887.79,775.84,415.48,749.1C102.06,731.35-10,592.71-10,592.71v-38.1S102.06,693.25,415.48,711C887.79,737.73,1696,401.27,1696,401.27Z"></path> <path class="cls-142" d="M1696,401.05v38.11S887.79,775.62,415.48,748.88C102.06,731.13-10,592.49-10,592.49v-38.1S102.06,693,415.48,710.77C887.79,737.51,1696,401.05,1696,401.05Z"></path> <path class="cls-143" d="M1696,400.84V439S887.79,775.41,415.48,748.67C102.06,730.92-10,592.28-10,592.28v-38.1S102.06,692.82,415.48,710.56C887.79,737.3,1696,400.84,1696,400.84Z"></path> <path class="cls-144" d="M1696,400.62v38.11S887.79,775.19,415.48,748.45C102.06,730.7-10,592.06-10,592.06V554S102.06,692.6,415.48,710.34C887.79,737.08,1696,400.62,1696,400.62Z"></path> <path class="cls-145" d="M1696,400.41v38.11S887.79,775,415.48,748.24C102.06,730.49-10,591.85-10,591.85v-38.1S102.06,692.39,415.48,710.13C887.79,736.87,1696,400.41,1696,400.41Z"></path> <path class="cls-146" d="M1696,400.19V438.3S887.79,774.76,415.48,748C102.06,730.27-10,591.63-10,591.63v-38.1S102.06,692.17,415.48,709.91C887.79,736.65,1696,400.19,1696,400.19Z"></path> <path class="cls-147" d="M1696,400v38.11S887.79,774.54,415.48,747.8C102.06,730.05-10,591.41-10,591.41V553.32S102.06,692,415.48,709.7C887.79,736.43,1696,400,1696,400Z"></path> <path class="cls-148" d="M1696,399.76v38.11S887.79,774.33,415.48,747.59C102.06,729.84-10,591.2-10,591.2V553.1S102.06,691.74,415.48,709.48C887.79,736.22,1696,399.76,1696,399.76Z"></path> <path class="cls-149" d="M1696,399.54v38.11S887.79,774.11,415.48,747.37C102.06,729.62-10,591-10,591v-38.1S102.06,691.52,415.48,709.26C887.79,736,1696,399.54,1696,399.54Z"></path> <path class="cls-150" d="M1696,399.33v38.11S887.79,773.9,415.48,747.16C102.06,729.41-10,590.77-10,590.77v-38.1S102.06,691.31,415.48,709.05C887.79,735.79,1696,399.33,1696,399.33Z"></path> <path class="cls-151" d="M1696,399.11v38.11S887.79,773.68,415.48,746.94C102.06,729.19-10,590.55-10,590.55v-38.1S102.06,691.09,415.48,708.83C887.79,735.57,1696,399.11,1696,399.11Z"></path> <path class="cls-152" d="M1696,398.9V437S887.79,773.47,415.48,746.73C102.06,729-10,590.34-10,590.34v-38.1S102.06,690.88,415.48,708.62C887.79,735.36,1696,398.9,1696,398.9Z"></path> <path class="cls-153" d="M1696,398.68v38.11S887.79,773.25,415.48,746.51C102.06,728.76-10,590.12-10,590.12V552S102.06,690.66,415.48,708.4C887.79,735.14,1696,398.68,1696,398.68Z"></path> <path class="cls-154" d="M1696,398.46v38.11S887.79,773,415.48,746.29C102.06,728.54-10,589.9-10,589.9V551.8S102.06,690.44,415.48,708.18C887.79,734.92,1696,398.46,1696,398.46Z"></path> <path class="cls-155" d="M1696,398.25v38.11S887.79,772.82,415.48,746.08C102.06,728.33-10,589.69-10,589.69v-38.1S102.06,690.23,415.48,708C887.79,734.71,1696,398.25,1696,398.25Z"></path> <path class="cls-156" d="M1696,398v38.11S887.79,772.6,415.48,745.86C102.06,728.11-10,589.47-10,589.47v-38.1S102.06,690,415.48,707.75C887.79,734.49,1696,398,1696,398Z"></path> <path class="cls-157" d="M1696,397.82v38.11S887.79,772.39,415.48,745.65C102.06,727.9-10,589.26-10,589.26v-38.1S102.06,689.8,415.48,707.54C887.79,734.28,1696,397.82,1696,397.82Z"></path> <path class="cls-158" d="M1696,397.6v38.11S887.79,772.17,415.48,745.43C102.06,727.68-10,589-10,589v-38.1S102.06,689.58,415.48,707.32C887.79,734.06,1696,397.6,1696,397.6Z"></path> <path class="cls-159" d="M1696,397.38v38.11S887.79,772,415.48,745.21C102.06,727.46-10,588.82-10,588.82v-38.1S102.06,689.36,415.48,707.1C887.79,733.84,1696,397.38,1696,397.38Z"></path> <path class="cls-160" d="M1696,397.17v38.11S887.79,771.74,415.48,745C102.06,727.25-10,588.61-10,588.61v-38.1S102.06,689.15,415.48,706.89C887.79,733.63,1696,397.17,1696,397.17Z"></path> <path class="cls-161" d="M1696,397v38.11S887.79,771.52,415.48,744.78C102.06,727-10,588.39-10,588.39v-38.1S102.06,688.93,415.48,706.67C887.79,733.41,1696,397,1696,397Z"></path> <path class="cls-162" d="M1696,396.74v38.11S887.79,771.31,415.48,744.57C102.06,726.82-10,588.18-10,588.18v-38.1S102.06,688.72,415.48,706.46C887.79,733.2,1696,396.74,1696,396.74Z"></path> <path class="cls-163" d="M1696,396.52v38.11S887.79,771.09,415.48,744.35C102.06,726.6-10,588-10,588v-38.1S102.06,688.5,415.48,706.24C887.79,733,1696,396.52,1696,396.52Z"></path> <path class="cls-164" d="M1696,396.3v38.11S887.79,770.87,415.48,744.13C102.06,726.38-10,587.74-10,587.74v-38.1S102.06,688.28,415.48,706C887.79,732.76,1696,396.3,1696,396.3Z"></path> <path class="cls-165" d="M1696,396.09V434.2S887.79,770.66,415.48,743.92C102.06,726.17-10,587.53-10,587.53v-38.1S102.06,688.07,415.48,705.81C887.79,732.55,1696,396.09,1696,396.09Z"></path> <path class="cls-166" d="M1696,395.87V434S887.79,770.44,415.48,743.7C102.06,726-10,587.31-10,587.31v-38.1S102.06,687.85,415.48,705.59C887.79,732.33,1696,395.87,1696,395.87Z"></path> <path class="cls-167" d="M1696,395.66v38.11S887.79,770.23,415.48,743.49C102.06,725.74-10,587.1-10,587.1V549S102.06,687.64,415.48,705.38C887.79,732.12,1696,395.66,1696,395.66Z"></path> <path class="cls-168" d="M1696,395.44v38.11S887.79,770,415.48,743.27C102.06,725.52-10,586.88-10,586.88v-38.1S102.06,687.42,415.48,705.16C887.79,731.9,1696,395.44,1696,395.44Z"></path> <path class="cls-169" d="M1696,395.22v38.11S887.79,769.79,415.48,743.05C102.06,725.3-10,586.66-10,586.66V548.57S102.06,687.2,415.48,705C887.79,731.68,1696,395.22,1696,395.22Z"></path> <path class="cls-170" d="M1696,395v38.11S887.79,769.58,415.48,742.84C102.06,725.09-10,586.45-10,586.45v-38.1S102.06,687,415.48,704.73C887.79,731.47,1696,395,1696,395Z"></path> <path class="cls-171" d="M1696,394.79V432.9S887.79,769.36,415.48,742.62C102.06,724.87-10,586.23-10,586.23v-38.1S102.06,686.77,415.48,704.51C887.79,731.25,1696,394.79,1696,394.79Z"></path> <path class="cls-172" d="M1696,394.58v38.11S887.79,769.15,415.48,742.41C102.06,724.66-10,586-10,586v-38.1S102.06,686.56,415.48,704.3C887.79,731,1696,394.58,1696,394.58Z"></path> <path class="cls-173" d="M1696,394.36v38.11S887.79,768.93,415.48,742.19C102.06,724.44-10,585.8-10,585.8V547.7S102.06,686.34,415.48,704.08C887.79,730.82,1696,394.36,1696,394.36Z"></path> <path class="cls-174" d="M1696,394.15v38.11S887.79,768.72,415.48,742C102.06,724.23-10,585.59-10,585.59v-38.1S102.06,686.13,415.48,703.87C887.79,730.61,1696,394.15,1696,394.15Z"></path> <path class="cls-175" d="M1696,393.93V432S887.79,768.5,415.48,741.76C102.06,724-10,585.37-10,585.37v-38.1S102.06,685.91,415.48,703.65C887.79,730.39,1696,393.93,1696,393.93Z"></path> <path class="cls-176" d="M1696,393.71v38.11S887.79,768.28,415.48,741.54C102.06,723.79-10,585.15-10,585.15v-38.1S102.06,685.69,415.48,703.43C887.79,730.17,1696,393.71,1696,393.71Z"></path> <path class="cls-177" d="M1696,393.5v38.11S887.79,768.07,415.48,741.33C102.06,723.58-10,584.94-10,584.94v-38.1S102.06,685.48,415.48,703.22C887.79,730,1696,393.5,1696,393.5Z"></path> <path class="cls-178" d="M1696,393.28v38.11S887.79,767.85,415.48,741.11C102.06,723.36-10,584.72-10,584.72v-38.1S102.06,685.26,415.48,703C887.79,729.74,1696,393.28,1696,393.28Z"></path> <path class="cls-179" d="M1696,393.07v38.11S887.79,767.64,415.48,740.9C102.06,723.15-10,584.51-10,584.51v-38.1S102.06,685.05,415.48,702.79C887.79,729.53,1696,393.07,1696,393.07Z"></path> <path class="cls-180" d="M1696,392.85V431S887.79,767.42,415.48,740.68C102.06,722.93-10,584.29-10,584.29v-38.1S102.06,684.83,415.48,702.57C887.79,729.31,1696,392.85,1696,392.85Z"></path> </g> <path class="cls-181" d="M412.48,753.57C884.79,780.31,1693,443.85,1693,443.85V-8H-13V597.19S99.06,735.83,412.48,753.57Z"></path> <g class="cls-182"> <path class="cls-2" d="M240.18,407.22C275,349.88,402.59,276.45,453.3,281.13c33.85,3.12,94.51,30.85,192.86,23.43,68.93-5.2,138.76-59.67,145.5-72.59-6.9,66.41-50.78,96.24-73.08,110-44.14,27.22-154.07,52.62-264.77,37.12-45-6.3-64.33-10.79-105.94,25.69,6.84,9.87,13.47,39.36,4,66C303.79,606.15,151.31,576.64,138.23,572.4c1.94-4.66,4.55-3.8,12.66-5.22s52.8-5.21,86.65-20.94c31.37-14.59,73.74-54.57,58.81-96.52C286.76,422.75,268.17,409,240.18,407.22Z"></path> <path class="cls-2" d="M619.64,395.66c50.44-12.72,134.76-35.61,161.49-72.34,52-26.22,229.36,1,276.08-1.11,55.66,2.26,181.44-2,237.39-71.77-13.12,55.87-72.52,116.07-111.42,130.22-123.22,68-294.34,34.48-441.05,15.39C673.72,387.15,626.58,395.18,619.64,395.66Z"></path> <path class="cls-2" d="M371.82,455.4c1.66-8-.4-37.51-5.28-47.84,10.32-5.44,34.17-12,50.28-12C457.87,394.53,565,420.27,608.55,422c13.74.53,62,6.66,105.59-7.77-.88,5.34-40.48,32.56-58.49,39.77-57.57,23-112.94,23.13-211.32,5.42C395.94,450.66,371.82,455.4,371.82,455.4Z"></path> <path class="cls-2" d="M366.37,476.05c1.79,8.43-10.89,30-13.07,32,8.51,5,53,18.21,68.16,23,138.89,42.95,172.28-2.62,184.62-13.7-13.88,1-39.53-2.56-50.22-3.66-22.45-2.3-123.16-32.95-143.84-36.95C389.94,472.4,371.23,474,366.37,476.05Z"></path> <path class="cls-2" d="M726.78,436.54c-25.91,36.86-121.27,57.74-147.35,56.82,33.21,6.86,43.29,7.31,66.93,13.28,149.46,37.71,279.81,47,338,31.42,58.95-15.82,106.38-37.82,131.46-71.07-13.75,3.89-76.87,14.72-113.33,13.73C896.91,477.87,818,447,789,441.24S736.63,434.34,726.78,436.54Z"></path> <path class="cls-2" d="M306.46,554.51c17.1-3.27,27.53-22.71,37-29.47,11.48-4.27,116.46,54.12,150,54-10.77,10.59-31.47,16.85-57.95,17.76C396.14,598.16,332.44,561.29,306.46,554.51Z"></path> <path class="cls-2" d="M483.61,561.92c81.69,3.86,114.66-11.87,130.42-28.06,33.56-2.64,115,31.2,140.77,38.82,71.62,21.12,143.92,30.4,171.42,23.76-46.55,35.3-123.48,42.76-178.85,39.16C641.83,628.74,536.58,578.28,483.61,561.92Z"></path> <path class="cls-2" d="M252.58,583.15c11.17-1.38,40.69-12.38,44-17.44,17.19,2.16,40.92,34.07,69.63,38.52-10.61,7-31.15,6.56-49.37,2.75C297.76,603,268.05,585.43,252.58,583.15Z"></path> <path class="cls-2" d="M379.94,604c35.33,6.71,92.78,7.11,123.59-6.23,21.5-4.8,142.35,68.06,192.5,69-23.5,12.83-110.77,13.77-165.5-2.78C483.17,649.6,450.26,631,379.94,604Z"></path> <path class="cls-2" d="M161.6,584.27c17.82,4.85,59.15,8.6,71.56,4.16,6.21,11.22,18.22,20.05,25.31,23C237.52,626.4,170.06,591.63,161.6,584.27Z"></path> <path class="cls-2" d="M272.86,608.13c20.82,6,76.88,26,91.25,13.63,15,.32,74.3,45.68,101,47.9-20.23,8.35-58.48,0-84-10.6S290.83,616.26,272.86,608.13Z"></path> </g> <path class="cls-181" d="M1519.85,456a1.5,1.5,0,0,0,0-3,1.5,1.5,0,0,0,0,3Z"></path> </g> </g> </svg> 